<?xml version="1.0" standalone="no"?>
<!DOCTYPE svg PUBLIC "-//W3C//DTD SVG 20010904//EN"
 "http://www.w3.org/TR/2001/REC-SVG-20010904/DTD/svg10.dtd">
<svg version="1.0" xmlns="http://www.w3.org/2000/svg"
 width="1200.000000pt" height="1200.000000pt" viewBox="0 0 1200.000000 1200.000000"
 preserveAspectRatio="xMidYMid meet">
<metadata>
Created by potrace 1.14, written by Peter Selinger 2001-2017
</metadata>
<g transform="translate(0.000000,1200.000000) scale(0.100000,-0.100000)"
fill="#000000" stroke="none">
<path d="M5819 11982 c-2 -6 -68 -13 -154 -17 -246 -11 -263 -12 -275 -20 -6
-4 -14 -5 -16 -2 -3 2 -22 1 -42 -4 -20 -5 -62 -11 -92 -14 -30 -4 -62 -8 -70
-10 -8 -2 -40 -7 -70 -10 -30 -3 -62 -8 -70 -10 -8 -2 -33 -7 -55 -10 -23 -3
-52 -8 -65 -11 -14 -3 -36 -7 -49 -10 -40 -8 -425 -94 -441 -99 -8 -2 -117
-36 -241 -74 -200 -63 -262 -85 -344 -121 -11 -5 -99 -43 -195 -84 -385 -165
-931 -473 -1155 -651 -49 -39 -144 -114 -210 -166 -123 -98 -446 -378 -500
-434 -16 -17 -59 -64 -95 -104 -36 -41 -69 -79 -75 -85 -5 -6 -39 -45 -75 -86
-36 -41 -73 -84 -83 -95 -10 -11 -49 -58 -85 -105 -37 -47 -71 -90 -77 -96 -5
-6 -21 -25 -35 -43 -13 -18 -55 -71 -93 -118 -38 -48 -76 -101 -85 -120 -9
-18 -19 -33 -24 -33 -4 0 -8 -4 -8 -9 0 -6 -42 -76 -93 -158 -51 -81 -107
-173 -124 -203 -40 -72 -256 -494 -254 -498 1 -1 -5 -17 -13 -35 -146 -345
-184 -444 -249 -657 -70 -226 -176 -677 -192 -815 -4 -27 -8 -57 -10 -65 -3
-8 -7 -44 -11 -80 -3 -36 -8 -68 -11 -72 -2 -4 -6 -31 -9 -60 -3 -29 -7 -64
-9 -78 -7 -38 -16 -147 -18 -220 -2 -36 -6 -70 -10 -77 -4 -6 -3 -14 3 -18 6
-4 8 -10 5 -14 -2 -5 -7 -60 -10 -122 -4 -63 -6 -118 -7 -124 -1 -29 12 -357
15 -363 2 -4 4 -51 6 -104 1 -53 4 -107 7 -120 2 -13 7 -43 9 -68 3 -25 8 -61
11 -80 2 -19 7 -48 9 -65 2 -16 9 -64 16 -105 6 -41 12 -84 13 -95 3 -22 16
-98 23 -130 2 -11 6 -31 9 -45 3 -14 10 -45 15 -70 12 -53 12 -52 34 -155 25
-123 35 -162 67 -270 17 -55 31 -104 33 -110 1 -5 5 -17 8 -25 3 -8 25 -76 48
-150 23 -74 49 -153 59 -175 10 -22 37 -85 60 -140 49 -119 48 -115 99 -233
23 -51 66 -140 96 -197 30 -58 51 -105 47 -105 -4 0 -2 -4 4 -8 6 -4 33 -49
59 -101 26 -52 85 -155 131 -229 46 -74 84 -136 84 -138 0 -1 23 -37 50 -78
28 -42 50 -78 50 -82 0 -3 14 -23 30 -43 17 -20 34 -40 38 -46 4 -5 52 -66
107 -135 55 -68 107 -134 115 -146 14 -20 116 -138 150 -174 8 -8 28 -31 44
-50 104 -126 222 -249 315 -330 36 -30 69 -60 75 -65 6 -6 47 -42 91 -80 44
-39 82 -73 85 -76 4 -5 107 -86 199 -158 19 -14 39 -31 45 -36 107 -97 543
-383 711 -466 39 -19 72 -37 75 -40 13 -14 421 -210 468 -224 12 -3 22 -10 22
-14 0 -4 6 -8 13 -8 7 0 73 -26 147 -57 74 -32 164 -67 200 -77 36 -11 72 -23
80 -26 8 -3 20 -7 26 -8 7 -2 54 -16 105 -32 165 -52 273 -83 304 -87 17 -2
50 -9 73 -15 24 -7 59 -14 79 -17 19 -2 40 -7 45 -10 6 -4 27 -9 47 -11 20 -3
38 -8 41 -12 3 -3 14 -6 25 -5 11 0 34 -4 50 -8 27 -7 62 -14 189 -34 21 -3
48 -8 60 -10 11 -2 48 -7 81 -10 33 -3 67 -8 75 -11 8 -3 35 -6 60 -8 25 -2
90 -8 145 -14 55 -6 144 -11 198 -11 71 0 97 -3 97 -12 0 -10 3 -9 9 1 6 10
13 11 29 2 13 -7 23 -7 27 -2 3 5 18 7 33 4 39 -7 107 -7 121 1 6 4 11 3 11
-1 0 -5 12 -8 28 -7 15 1 27 3 27 4 0 1 10 3 23 4 12 2 22 -2 22 -8 0 -8 2 -8
8 0 4 7 55 11 137 12 72 1 153 4 180 7 28 3 72 8 98 11 27 3 68 8 90 10 23 2
53 6 67 8 14 3 44 7 68 10 24 3 53 8 65 11 24 5 75 12 140 20 39 5 52 7 106
19 52 12 209 45 231 50 14 2 54 11 90 20 36 8 79 17 96 20 16 3 59 15 94 26
35 11 70 18 78 15 7 -2 11 -1 8 4 -3 4 14 13 37 20 23 7 101 30 172 53 72 22
135 41 140 42 6 1 36 14 69 29 32 15 60 27 63 27 4 0 60 24 133 57 19 9 41 16
48 16 6 0 12 4 12 9 0 4 8 8 18 8 10 0 22 3 26 7 4 5 11 8 14 8 4 1 22 9 39
18 18 10 35 17 38 17 3 0 28 11 55 25 28 14 50 22 50 18 0 -5 4 -3 8 3 7 12
81 52 96 52 5 0 12 4 15 9 8 11 238 127 247 124 4 -2 10 1 13 6 9 13 71 55 71
48 0 -3 9 3 20 13 11 10 33 25 48 33 15 8 29 17 32 20 3 3 24 17 47 30 78 45
242 149 255 162 7 7 43 36 80 64 37 28 77 61 89 72 13 12 29 21 36 21 7 0 13
4 13 9 0 4 28 30 63 57 75 59 96 76 111 90 6 5 67 59 136 119 262 230 239 207
450 449 14 16 39 44 55 61 34 37 52 58 115 135 25 30 51 61 57 68 7 7 13 17
13 20 0 4 10 18 23 32 13 14 47 57 77 95 30 39 59 75 65 81 35 38 130 179 157
234 7 14 15 27 18 30 5 4 98 150 145 228 26 42 129 247 126 251 -1 2 1 7 6 10
9 6 153 292 153 303 0 4 14 37 31 75 16 37 34 77 39 88 125 278 276 779 336
1115 3 14 11 52 18 85 8 33 17 87 22 120 4 33 8 62 9 65 0 3 5 34 9 70 4 36
10 74 12 85 2 11 6 45 9 75 4 30 8 62 10 70 31 113 37 929 9 1145 -4 35 -15
128 -19 165 -2 14 -4 25 -5 25 -3 0 -7 29 -14 91 -4 32 -9 66 -11 74 -4 16
-16 100 -20 135 -2 18 -16 91 -30 150 -2 11 -21 94 -41 185 -55 253 -173 623
-274 865 -49 116 -90 217 -92 225 -2 8 -5 17 -8 20 -3 3 -61 115 -129 250 -68
135 -145 279 -171 320 -26 41 -65 104 -88 140 -23 36 -60 97 -83 135 -23 39
-61 94 -83 124 -23 29 -45 61 -51 70 -5 8 -15 20 -22 26 -10 9 -145 178 -203
255 -14 18 -32 40 -41 49 -8 9 -44 50 -80 91 -35 41 -73 84 -84 96 -11 12 -45
50 -75 85 -58 68 -123 134 -181 184 -78 68 -274 240 -279 245 -3 3 -27 24 -55
45 -27 22 -52 42 -55 45 -3 3 -48 39 -100 80 -52 41 -97 77 -100 80 -3 3 -23
18 -45 34 -22 16 -44 34 -50 40 -8 10 -86 60 -157 101 -63 37 -191 119 -203
132 -8 8 -15 11 -15 7 0 -4 -8 0 -17 8 -24 20 -104 64 -235 131 -60 29 -105
57 -100 62 4 4 2 5 -5 2 -6 -4 -58 17 -115 47 -56 29 -124 61 -150 71 -27 10
-48 21 -48 25 0 4 -6 7 -14 7 -8 0 -54 16 -102 37 -88 37 -106 45 -194 84 -36
16 -253 87 -295 97 -5 1 -17 5 -25 8 -46 18 -257 79 -320 92 -41 9 -84 19 -95
21 -11 3 -32 6 -47 9 -15 2 -36 6 -47 10 -11 3 -28 7 -38 9 -10 2 -54 12 -98
21 -44 10 -91 19 -105 21 -14 1 -38 5 -55 8 -16 3 -52 8 -80 11 -27 4 -53 12
-57 18 -6 9 -8 9 -8 -1 0 -7 -3 -11 -7 -9 -7 5 -62 13 -148 23 -16 2 -41 6
-55 9 -29 6 -198 19 -252 19 -21 0 -38 4 -38 8 0 5 -8 4 -18 -1 -10 -5 -23 -7
-29 -3 -6 4 -93 7 -192 7 -100 0 -181 4 -181 8 0 5 -6 5 -12 0 -18 -10 -62
-10 -69 0 -4 5 -8 5 -10 -1z"/>
</g>
</svg>
